<svg viewBox="5 5 162 41" width="100" height="41" fill="none" xmlns="http://www.w3.org/2000/svg">
  <path d="M19.6723 5.01949C20.4376 5.02481 21.2025 5.03014 21.9327 5.03014H29.3618C30.0919 5.03014 30.8568 5.02481 31.6221 5.01949C33.6825 5.00515 35.7459 4.99079 37.1425 5.08022C42.2264 5.4058 45.7326 8.48622 46.1834 13.7204C46.2903 15.6013 46.2877 17.8671 46.2847 20.5392V20.54C46.2841 20.9986 46.2836 21.4692 46.2836 21.9519V29.381C46.2836 29.8637 46.2841 30.3343 46.2847 30.7929C46.2877 33.4654 46.2903 35.7315 46.1834 37.6125C45.7326 42.8467 42.2264 45.9272 37.1425 46.2527C35.7459 46.3422 33.6825 46.3278 31.6221 46.3135C30.8568 46.3081 30.0919 46.3028 29.3618 46.3028H21.9327C21.2025 46.3028 20.4376 46.3081 19.6723 46.3135C17.612 46.3278 15.5486 46.3422 14.152 46.2527C9.06805 45.9272 5.56188 42.8467 5.11108 37.6125C5.0042 35.7316 5.00679 33.4658 5.00983 30.7937V30.7929C5.01036 30.3343 5.01089 29.8637 5.01089 29.381V21.9519C5.01089 21.4692 5.01036 20.9986 5.00983 20.54V20.5392C5.00679 17.8671 5.0042 15.6013 5.11108 13.7204C5.56188 8.48622 9.06805 5.4058 14.152 5.08022C15.5486 4.99079 17.612 5.00515 19.6723 5.01949Z" fill="url(#paint0_linear_2973_971)"/>
  <g filter="url(#filter0_dddddd_2973_971)">
    <path d="M11.7206 19.7347C11.7206 18.6836 12.5728 17.8314 13.624 17.8314H26.9475C29.6031 17.8314 31.7559 19.9842 31.7559 22.6399V31.5055C31.7559 32.5567 30.9038 33.4088 29.8526 33.4088H16.5291C13.8735 33.4088 11.7206 31.256 11.7206 28.6004V19.7347Z" fill="url(#paint1_linear_2973_971)"/>
    <path d="M13.624 18.0568H26.9475C29.4786 18.0568 31.5305 20.1087 31.5305 22.6399V31.5055C31.5305 32.4322 30.7793 33.1834 29.8526 33.1834H16.5291C13.9979 33.1834 11.946 31.1315 11.946 28.6004V19.7347C11.946 18.808 12.6973 18.0568 13.624 18.0568Z" stroke="url(#paint2_linear_2973_971)" stroke-width="0.450794"/>
  </g>
  <g filter="url(#filter1_dddddd_2973_971)">
    <path d="M32.958 23.3465C32.958 22.6986 33.2368 22.082 33.7232 21.6541L37.5404 18.2961C38.3494 17.5845 39.6197 18.1589 39.6197 19.2363V32.0421C39.6197 33.1094 38.3701 33.6874 37.5568 32.9964L34.0527 30.0193C33.3583 29.4293 32.958 28.564 32.958 27.6527V23.3465Z" fill="url(#paint3_linear_2973_971)"/>
    <path d="M33.8721 21.8234L37.6893 18.4654C38.3527 17.8818 39.3943 18.3528 39.3943 19.2363V32.0421C39.3943 32.9173 38.3696 33.3913 37.7027 32.8246L34.1987 29.8475C33.5546 29.3003 33.1834 28.4978 33.1834 27.6527V23.3465C33.1834 22.7634 33.4343 22.2085 33.8721 21.8234Z" stroke="url(#paint4_linear_2973_971)" stroke-width="0.450794"/>
  </g>
  <path d="M 110.937 24.936 C 110.937 27.604 110.424 29.865 109.398 31.72 C 108.372 33.575 106.982 34.984 105.23 35.946 C 103.486 36.909 101.529 37.391 99.358 37.391 C 97.18 37.391 95.218 36.905 93.474 35.935 C 91.73 34.964 90.345 33.555 89.319 31.708 C 88.3 29.853 87.791 27.596 87.791 24.936 C 87.791 22.268 88.3 20.007 89.319 18.152 C 90.345 16.298 91.73 14.889 93.474 13.926 C 95.218 12.963 97.18 12.482 99.358 12.482 C 101.529 12.482 103.486 12.963 105.23 13.926 C 106.982 14.889 108.372 16.298 109.398 18.152 C 110.424 20.007 110.937 22.268 110.937 24.936 Z M 104.946 24.936 C 104.946 23.358 104.721 22.024 104.271 20.935 C 103.829 19.845 103.19 19.021 102.353 18.46 C 101.525 17.9 100.526 17.62 99.358 17.62 C 98.198 17.62 97.199 17.9 96.363 18.46 C 95.526 19.021 94.883 19.845 94.433 20.935 C 93.991 22.024 93.77 23.358 93.77 24.936 C 93.77 26.515 93.991 27.849 94.433 28.938 C 94.883 30.027 95.526 30.852 96.363 31.412 C 97.199 31.973 98.198 32.253 99.358 32.253 C 100.526 32.253 101.525 31.973 102.353 31.412 C 103.19 30.852 103.829 30.027 104.271 28.938 C 104.721 27.849 104.946 26.515 104.946 24.936 Z M 137.243 24.936 C 137.243 27.604 136.73 29.865 135.704 31.72 C 134.678 33.575 133.289 34.984 131.537 35.946 C 129.792 36.909 127.835 37.391 125.664 37.391 C 123.486 37.391 121.525 36.905 119.78 35.935 C 118.036 34.964 116.651 33.555 115.625 31.708 C 114.607 29.853 114.098 27.596 114.098 24.936 C 114.098 22.268 114.607 20.007 115.625 18.152 C 116.651 16.298 118.036 14.889 119.78 13.926 C 121.525 12.963 123.486 12.482 125.664 12.482 C 127.835 12.482 129.792 12.963 131.537 13.926 C 133.289 14.889 134.678 16.298 135.704 18.152 C 136.73 20.007 137.243 22.268 137.243 24.936 Z M 131.252 24.936 C 131.252 23.358 131.027 22.024 130.578 20.935 C 130.136 19.845 129.496 19.021 128.66 18.46 C 127.831 17.9 126.832 17.62 125.664 17.62 C 124.504 17.62 123.506 17.9 122.669 18.46 C 121.832 19.021 121.189 19.845 120.739 20.935 C 120.297 22.024 120.076 23.358 120.076 24.936 C 120.076 26.515 120.297 27.849 120.739 28.938 C 121.189 30.027 121.832 30.852 122.669 31.412 C 123.506 31.973 124.504 32.253 125.664 32.253 C 126.832 32.253 127.831 31.973 128.66 31.412 C 129.496 30.852 130.136 30.027 130.578 28.938 C 131.027 27.849 131.252 26.515 131.252 24.936 Z M 140.664 12.813 L 147.922 12.813 L 154.078 27.825 L 154.362 27.825 L 160.518 12.813 L 167.776 12.813 L 167.776 37.059 L 162.069 37.059 L 162.069 22.166 L 161.868 22.166 L 156.043 36.905 L 152.397 36.905 L 146.572 22.083 L 146.371 22.083 L 146.371 37.059 L 140.664 37.059 L 140.664 12.813 Z" fill="white" transform="matrix(1, 0, 0, 1, 0, 1.7763568394002505e-15)"/>
  <text style="fill: rgb(255, 255, 255); font-family: Arial, sans-serif; font-size: 32px; font-weight: 700; stroke-width: 17px; white-space: pre;" x="48.061" y="37.084" transform="matrix(1, 0, 0, 1, 0, 1.7763568394002505e-15)">ZL</text>
  <defs>
    <filter id="filter0_dddddd_2973_971" x="8.11429" y="16.479" width="27.248" height="22.7901" filterUnits="userSpaceOnUse" color-interpolation-filters="sRGB">
      <feFlood flood-opacity="0" result="BackgroundImageFix"/>
      <feColorMatrix in="SourceAlpha" type="matrix" values="0 0 0 0 0 0 0 0 0 0 0 0 0 0 0 0 0 0 127 0" result="hardAlpha"/>
      <feOffset dy="0.123703"/>
      <feGaussianBlur stdDeviation="0.0455686"/>
      <feColorMatrix type="matrix" values="0 0 0 0 0.0509804 0 0 0 0 0.121569 0 0 0 0 0.396078 0 0 0 0.189957 0"/>
      <feBlend mode="multiply" in2="BackgroundImageFix" result="effect1_dropShadow_2973_971"/>
      <feColorMatrix in="SourceAlpha" type="matrix" values="0 0 0 0 0 0 0 0 0 0 0 0 0 0 0 0 0 0 127 0" result="hardAlpha"/>
      <feOffset dy="0.242703"/>
      <feGaussianBlur stdDeviation="0.101348"/>
      <feColorMatrix type="matrix" values="0 0 0 0 0.0509804 0 0 0 0 0.121569 0 0 0 0 0.396078 0 0 0 0.368551 0"/>
      <feBlend mode="multiply" in2="effect1_dropShadow_2973_971" result="effect2_dropShadow_2973_971"/>
      <feColorMatrix in="SourceAlpha" type="matrix" values="0 0 0 0 0 0 0 0 0 0 0 0 0 0 0 0 0 0 127 0" result="hardAlpha"/>
      <feOffset dy="0.373252"/>
      <feGaussianBlur stdDeviation="0.173572"/>
      <feColorMatrix type="matrix" values="0 0 0 0 0.0509804 0 0 0 0 0.121569 0 0 0 0 0.396078 0 0 0 0.3 0"/>
      <feBlend mode="multiply" in2="effect2_dropShadow_2973_971" result="effect3_dropShadow_2973_971"/>
      <feColorMatrix in="SourceAlpha" type="matrix" values="0 0 0 0 0 0 0 0 0 0 0 0 0 0 0 0 0 0 127 0" result="hardAlpha"/>
      <feOffset dy="0.547679"/>
      <feGaussianBlur stdDeviation="0.551221"/>
      <feColorMatrix type="matrix" values="0 0 0 0 0.0509804 0 0 0 0 0.121569 0 0 0 0 0.396078 0 0 0 0.3 0"/>
      <feBlend mode="multiply" in2="effect3_dropShadow_2973_971" result="effect4_dropShadow_2973_971"/>
      <feColorMatrix in="SourceAlpha" type="matrix" values="0 0 0 0 0 0 0 0 0 0 0 0 0 0 0 0 0 0 127 0" result="hardAlpha"/>
      <feOffset dy="0.852209"/>
      <feGaussianBlur stdDeviation="1.0248"/>
      <feColorMatrix type="matrix" values="0 0 0 0 0.0509804 0 0 0 0 0.121569 0 0 0 0 0.396078 0 0 0 0.29 0"/>
      <feBlend mode="overlay" in2="effect4_dropShadow_2973_971" result="effect5_dropShadow_2973_971"/>
      <feColorMatrix in="SourceAlpha" type="matrix" values="0 0 0 0 0 0 0 0 0 0 0 0 0 0 0 0 0 0 127 0" result="hardAlpha"/>
      <feOffset dy="2.25397"/>
      <feGaussianBlur stdDeviation="1.80318"/>
      <feColorMatrix type="matrix" values="0 0 0 0 0.0509804 0 0 0 0 0.121569 0 0 0 0 0.396078 0 0 0 0.45 0"/>
      <feBlend mode="multiply" in2="effect5_dropShadow_2973_971" result="effect6_dropShadow_2973_971"/>
      <feBlend mode="normal" in="SourceGraphic" in2="effect6_dropShadow_2973_971" result="shape"/>
    </filter>
    <filter id="filter1_dddddd_2973_971" x="29.3517" y="16.6293" width="13.8744" height="22.5278" filterUnits="userSpaceOnUse" color-interpolation-filters="sRGB">
      <feFlood flood-opacity="0" result="BackgroundImageFix"/>
      <feColorMatrix in="SourceAlpha" type="matrix" values="0 0 0 0 0 0 0 0 0 0 0 0 0 0 0 0 0 0 127 0" result="hardAlpha"/>
      <feOffset dy="0.123703"/>
      <feGaussianBlur stdDeviation="0.0455686"/>
      <feColorMatrix type="matrix" values="0 0 0 0 0.0509804 0 0 0 0 0.121569 0 0 0 0 0.396078 0 0 0 0.189957 0"/>
      <feBlend mode="multiply" in2="BackgroundImageFix" result="effect1_dropShadow_2973_971"/>
      <feColorMatrix in="SourceAlpha" type="matrix" values="0 0 0 0 0 0 0 0 0 0 0 0 0 0 0 0 0 0 127 0" result="hardAlpha"/>
      <feOffset dy="0.242703"/>
      <feGaussianBlur stdDeviation="0.101348"/>
      <feColorMatrix type="matrix" values="0 0 0 0 0.0509804 0 0 0 0 0.121569 0 0 0 0 0.396078 0 0 0 0.368551 0"/>
      <feBlend mode="multiply" in2="effect1_dropShadow_2973_971" result="effect2_dropShadow_2973_971"/>
      <feColorMatrix in="SourceAlpha" type="matrix" values="0 0 0 0 0 0 0 0 0 0 0 0 0 0 0 0 0 0 127 0" result="hardAlpha"/>
      <feOffset dy="0.373252"/>
      <feGaussianBlur stdDeviation="0.173572"/>
      <feColorMatrix type="matrix" values="0 0 0 0 0.0509804 0 0 0 0 0.121569 0 0 0 0 0.396078 0 0 0 0.3 0"/>
      <feBlend mode="multiply" in2="effect2_dropShadow_2973_971" result="effect3_dropShadow_2973_971"/>
      <feColorMatrix in="SourceAlpha" type="matrix" values="0 0 0 0 0 0 0 0 0 0 0 0 0 0 0 0 0 0 127 0" result="hardAlpha"/>
      <feOffset dy="0.547679"/>
      <feGaussianBlur stdDeviation="0.551221"/>
      <feColorMatrix type="matrix" values="0 0 0 0 0.0509804 0 0 0 0 0.121569 0 0 0 0 0.396078 0 0 0 0.3 0"/>
      <feBlend mode="multiply" in2="effect3_dropShadow_2973_971" result="effect4_dropShadow_2973_971"/>
      <feColorMatrix in="SourceAlpha" type="matrix" values="0 0 0 0 0 0 0 0 0 0 0 0 0 0 0 0 0 0 127 0" result="hardAlpha"/>
      <feOffset dy="0.852209"/>
      <feGaussianBlur stdDeviation="1.0248"/>
      <feColorMatrix type="matrix" values="0 0 0 0 0.0509804 0 0 0 0 0.121569 0 0 0 0 0.396078 0 0 0 0.29 0"/>
      <feBlend mode="overlay" in2="effect4_dropShadow_2973_971" result="effect5_dropShadow_2973_971"/>
      <feColorMatrix in="SourceAlpha" type="matrix" values="0 0 0 0 0 0 0 0 0 0 0 0 0 0 0 0 0 0 127 0" result="hardAlpha"/>
      <feOffset dy="2.25397"/>
      <feGaussianBlur stdDeviation="1.80318"/>
      <feColorMatrix type="matrix" values="0 0 0 0 0.0509804 0 0 0 0 0.121569 0 0 0 0 0.396078 0 0 0 0.45 0"/>
      <feBlend mode="multiply" in2="effect5_dropShadow_2973_971" result="effect6_dropShadow_2973_971"/>
      <feBlend mode="normal" in="SourceGraphic" in2="effect6_dropShadow_2973_971" result="shape"/>
    </filter>
    <linearGradient id="paint0_linear_2973_971" x1="25.6472" y1="5.00882" x2="25.6472" y2="46.3241" gradientUnits="userSpaceOnUse">
      <stop stop-color="#A4C1FF"/>
      <stop offset="1" stop-color="#0E78F9"/>
    </linearGradient>
    <linearGradient id="paint1_linear_2973_971" x1="21.7383" y1="17.8314" x2="21.7383" y2="33.4088" gradientUnits="userSpaceOnUse">
      <stop stop-color="white"/>
      <stop offset="1" stop-color="#C5D4F7"/>
    </linearGradient>
    <linearGradient id="paint2_linear_2973_971" x1="21.7383" y1="17.8314" x2="21.7383" y2="33.4088" gradientUnits="userSpaceOnUse">
      <stop stop-color="white"/>
      <stop offset="1" stop-color="#637ACA"/>
    </linearGradient>
    <linearGradient id="paint3_linear_2973_971" x1="36.2889" y1="17.9817" x2="36.2889" y2="33.2967" gradientUnits="userSpaceOnUse">
      <stop stop-color="white"/>
      <stop offset="1" stop-color="#C5D4F7"/>
    </linearGradient>
    <linearGradient id="paint4_linear_2973_971" x1="36.2889" y1="17.9817" x2="36.2889" y2="33.2967" gradientUnits="userSpaceOnUse">
      <stop stop-color="white"/>
      <stop offset="1" stop-color="#637ACA"/>
    </linearGradient>
  </defs>
</svg>
